HIERARCHY
ROOT Hips
{
  OFFSET 0.0 0.0 0.0
  CHANNELS 6 XPOSITION YPOSITION ZPOSITION ZROTATION XROTATION YROTATION 
  JOINT LeftUpLeg
  {
    OFFSET 0.08945800000000001 -0.0866707 0.0010165200000000001
    CHANNELS 3 ZROTATION XROTATION YROTATION 
    JOINT LeftLeg
    {
      OFFSET 0.0 -0.444227 0.013727000000000001
      CHANNELS 3 ZROTATION XROTATION YROTATION 
      JOINT LeftFoot
      {
        OFFSET -0.0025354900000000005 -0.42092399999999996 -0.014605900000000002
        CHANNELS 3 ZROTATION XROTATION YROTATION 
        End Site
        {
          OFFSET -0.0004 -0.0441509 0.08499100000000001
        }
      }
    }
  }
  JOINT Spine
  {
    OFFSET 0.0 0.118905 0.0
    CHANNELS 3 ZROTATION XROTATION YROTATION 
    JOINT Spine1
    {
      OFFSET 0.0 0.25657399999999997 0.00127663
      CHANNELS 3 ZROTATION XROTATION YROTATION 
      End Site
      {
        OFFSET -0.0029 0.21508359999999999 0.02525291
      }
      JOINT RightArm
      {
        OFFSET -0.162727 -0.05365632 0.0010212299999999997
        CHANNELS 3 ZROTATION XROTATION YROTATION 
        JOINT RightForeArm
        {
          OFFSET -0.26364 0.00099144 -0.0142434
          CHANNELS 3 ZROTATION XROTATION YROTATION 
          End Site
          {
            OFFSET -0.220324 0.0008536199999999999 0.010221599999999999
          }
        }
      }
      JOINT LeftArm
      {
        OFFSET 0.162727 -0.053656319900000006 0.0010212299999999997
        CHANNELS 3 ZROTATION XROTATION YROTATION 
        JOINT LeftForeArm
        {
          OFFSET 0.26259699999999997 0.00099144 -0.0142434
          CHANNELS 3 ZROTATION XROTATION YROTATION 
          End Site
          {
            OFFSET 0.220902 0.0008536199999999999 0.010221599999999999
          }
        }
      }
    }
  }
  JOINT RightUpLeg
  {
    OFFSET -0.08945800000000001 -0.0866707 0.0010165200000000001
    CHANNELS 3 ZROTATION XROTATION YROTATION 
    JOINT RightLeg
    {
      OFFSET 0.0 -0.444227 0.013727000000000001
      CHANNELS 3 ZROTATION XROTATION YROTATION 
      JOINT RightFoot
      {
        OFFSET 0.0025354900000000005 -0.42092399999999996 -0.014605900000000002
        CHANNELS 3 ZROTATION XROTATION YROTATION 
        End Site
        {
          OFFSET 0.0004 -0.0441509 0.08499100000000001
        }
      }
    }
  }
}
MOTION
Frames: 12
Frame Time: 0.033333
-29.818897 0.9320249400254038 -0.7929174999999999 -8.56152003497957 -3.497939870440164 -93.89560089759495 -8.715769612100551 -5.629749699323983 0.55097994112241 1.0658899734031 28.133298181830522 20.949899439268904 -1.9225240815347542 -14.679700403832573 -0.08933089022615301 -5.1560995591588705 13.572299635583603 0.2966939993548187 -1.3164399884576794 -1.1583399989138077 -0.5844989877525418 77.42084994025485 -29.504815535094718 2.1785554301199745 13.08569988363897 46.59560174424576 -7.156240202874357 -72.34401131131939 -16.184013710034737 -23.237766924413055 -11.598900890016008 39.86900263828001 -4.806210312320274 -6.565909941117917 -16.59760044729923 -1.6263600354904195 -8.33385019314918 83.78739903921797 -9.680270870081808 12.992407183539411 -3.7441615732733653 -0.16160550409410157 
-29.851293000000002 0.9366149400254038 -0.7921868999999999 -8.49140985069668 -3.031339979602386 -93.26190277659033 -8.040339889040808 -2.3547700418380724 1.089479952692443 0.7521760230906822 25.930599740541847 19.76600055231579 -2.017381748727891 -15.531903106575063 -0.10844036547156692 -5.886179760202003 13.746799869820027 -0.3063960162665573 0.1740069931927291 -1.3887200384625162 -1.5077400334531024 72.57506978075176 -25.869322698403078 -8.299010251966592 11.02400045248145 41.62439882101372 -0.19924899780714259 -72.4203591658618 -16.78740969678659 -31.482520714934005 -9.999390114709497 39.29880137089442 -6.972100010398106 -5.779020068540027 -22.283900270969507 -2.6362500349405256 -8.463990910047311 83.70960318457152 -10.515200024413337 12.007110560856406 -5.237825760785835 -0.014256247311569653 
-29.883908 0.9401609400254038 -0.7917614 -8.457609805815226 -2.655509887739492 -92.55540166922255 -7.426799363824195 0.9480049637534996 1.6168599894068723 0.46894301924906284 23.67330076702809 18.436099541664486 -1.5449600821180292 -16.172897577160544 -0.06387580905604025 -6.6394902883859945 14.144800969172193 -1.159560041454301 1.8220799599307813 -1.9690999952587174 -2.627699918760139 69.43730136661542 -21.690782011371233 -16.165025784142102 10.325400166436083 41.09930070781231 3.371189915578122 -71.45549249275994 -16.951708189723952 -37.93474087665659 -7.787170389717822 36.79850134218453 -10.143399530717339 -5.1767399639438265 -26.80120126536106 -3.620360125698653 -5.804590162358439 80.5441998250533 -13.965900385562989 11.453445181451418 -7.222312891584122 0.16765471716141891 
-29.916146 0.9414799400254038 -0.7915483999999999 -8.579929956113693 -2.3673000238704605 -91.90330301859392 -6.9814603577687855 4.1905199850624 2.062420016114955 0.3325050013383129 21.784399999230015 17.42710130878789 -1.371984580892104 -17.29619731825001 -0.052286802308686806 -7.202080163715252 14.824700197270065 -2.060589952304215 3.186460192399134 -2.521420040840625 -3.7260500460286075 67.1819524121097 -18.944620785750274 -21.797443952997444 10.180199736191721 43.221300464057286 3.8306300606184345 -68.39525355589241 -15.829803514772461 -42.6961511244371 -5.663849845642095 31.666799218740948 -13.937700242027299 -4.932629856781217 -29.8836007509907 -4.711800022517773 -3.6139504200494192 74.54960233772157 -16.630200940207697 11.803888527386432 -8.963370799702684 0.3470860411536885 
-29.948386000000003 0.9406389400254037 -0.7915800999999999 -8.782559470673169 -2.161470138798011 -91.66079715211262 -6.700740009768085 7.376629916823158 2.596189908241343 0.21765499691857823 20.15580115579571 16.833998417115247 -1.5015173042323977 -18.37039995203813 -0.07512721836242059 -7.430409972574193 15.430799231385949 -2.666819827231387 4.0594802445147655 -2.6841700018271 -4.420030135987283 64.24359820098104 -19.367568297272268 -26.246099838683076 10.957900443015006 45.77240002471915 1.7539501036203735 -64.37732647474071 -14.40902171457226 -46.49914581278684 -3.6703101528726028 26.60960079876386 -17.87910102994453 -4.646940119272508 -31.424498257934744 -5.566239612213443 -2.3828299530523656 65.8894005833873 -18.428200427889365 11.946320169696 -9.84611640086618 0.4411482581127836 
-29.981043 0.9387059400254039 -0.7917610999999999 -8.835139974451218 -2.0667198336408896 -91.70709900449613 -6.6923397308626145 10.357000036631147 2.962089972268096 0.14583399699094712 18.59639895884281 16.66829973539803 -1.2928844802793038 -18.885597706037608 -0.05038561515114979 -7.38863995070498 15.738099687428578 -3.0132100962242334 4.627980367910199 -2.5934098078057364 -4.776449897446059 60.97533902275159 -20.99672038602934 -30.025224723430913 11.588200544907536 46.27700074022135 -0.7747189557246036 -61.81099217713514 -14.363723899996735 -49.73215438470985 -1.7076700224648365 24.169100783784728 -21.79829943419099 -4.1907001313017584 -31.492800149634874 -6.135540148402237 -1.7462299621458492 54.84959848826103 -19.309100170429666 11.789450361254671 -10.244233613434236 0.4718441420990258 
-30.015085000000003 0.9347899400254038 -0.7920691999999999 -8.755009902655921 -2.108160085439238 -91.78809821786332 -6.925209907972322 13.00590022224477 3.1844100684310725 0.21806500837197734 17.590199395978622 16.724500239436185 -1.297243101465124 -19.8010974793659 -0.05738179992934567 -7.160209823442604 15.837799958743254 -3.2326899009095422 4.933510097410502 -2.4922801059638235 -4.971679755813472 57.8527267983835 -22.72808284062107 -33.25919635202689 11.432500406361573 45.096201051604126 -2.1465600492832846 -62.41275916376995 -16.367066194885666 -52.58496389157868 -0.263641993589613 24.8951003736856 -25.576399790563325 -3.7863098168678677 -30.46909822702253 -6.627460190823487 -1.3516901678772921 42.95979984149418 -18.643699726392438 11.903081657155234 -10.285639073956501 0.4823965709232839 
-30.051778000000002 0.9275399400254037 -0.7929797999999999 -8.851970414339776 -2.1912200949450593 -91.88199965857265 -7.098079861431229 15.615400461631177 3.68858005512874 0.313832998375217 17.536500448723984 16.44830104977921 -2.4775772700017247 -21.624636751901537 -0.25745237477812694 -6.880829900066518 15.816699796849793 -3.3133399208554066 5.044160015738355 -2.208240072583085 -5.024699526132519 55.70196170044902 -23.817682428345694 -35.371165975475705 10.869399974391857 42.96570112493707 -2.143030122142857 -64.21546465178974 -18.243954367480978 -54.681350438436105 0.49732997913072347 25.963200233450316 -29.034799482454872 -3.353950091226187 -28.74100231040136 -6.883179912027826 -1.0753099782073112 32.79129765802975 -16.85839926792512 12.354423118830615 -10.338359596612536 0.5149635532161394 
-30.091239 0.9184129400254037 -0.7952668999999999 -9.144739642923204 -2.2431997555195604 -91.73360013847578 -6.972149956156412 18.31819852375902 4.437999936806764 0.4528909541216222 18.21529830881819 15.373299283858197 -4.269961061525171 -23.147417182072125 -0.5915265053565445 -6.78843024720094 15.508301387898085 -3.354409848334693 5.379579933707103 -1.5153499314055543 -5.121280108543792 54.93583645672161 -24.21867600432797 -35.91083971236592 10.464300600944755 41.24499888809244 -1.5373700344028525 -65.44274036261432 -18.75793976290278 -55.49916313870759 1.1627399213997651 26.579699938124836 -31.907201386957887 -2.8039399302442125 -26.472899685167935 -6.723429898190867 -0.9060000474098617 26.05740049493584 -15.651400681199021 13.001053349255 -10.88422746130631 0.6113707662163702 
-30.133072000000002 0.9102819400254039 -0.7990141999999999 -9.13150017499078 -2.1275198297548163 -90.91899762711421 -6.389530124199269 20.537999758729406 4.4839299707673375 0.8776580173663351 19.485798871805187 14.162199168535508 -5.878593981355057 -23.640100925019947 -0.8966350042841279 -6.5766499867009385 14.63859974050202 -3.615160217306158 6.0972996267866275 -0.7907849480346487 -5.4781199266365235 55.21595617496217 -24.272265668555892 -35.1941206419998 10.330200935648957 40.917600600417046 -1.0433100083372726 -65.89424318750885 -17.9608771773298 -54.742634310764046 2.2060298660563507 27.638399750044325 -34.05480069221207 -2.2140800977668573 -24.07740037153543 -6.532869754781626 -0.6109400374118363 22.72600134047151 -16.218198806830653 12.755146902340678 -10.658698030007073 0.5719706065457402 
-30.176742 0.9040099400254038 -0.8032843 -8.541590396755119 -1.3317399323636254 -89.53699764102134 -4.936299802799629 21.62239986494836 2.9043998466606413 1.1920700343562693 21.917899461652496 14.342500794698212 -8.37053940804955 -23.716349741819386 -1.3522739356079168 -5.129469932245461 13.348299312884803 -4.057260006147689 6.653960044142667 -0.6298719877697894 -5.763919800945598 56.09908938936107 -24.37593086468376 -33.491620859293256 10.450999661309801 41.5540000612384 -1.0543800374345706 -65.52834995367127 -15.732666271943833 -52.15469270971914 3.3214898306391127 28.79169938951578 -35.33869867125605 -1.14454002858262 -22.672300685669576 -7.198749592721224 -0.25007400956636777 22.64050103244129 -17.149998826613178 9.863226878510709 -8.039718341826337 0.1953703708332877 
-30.220681000000003 0.8982639400254038 -0.8074996999999999 -7.886370349675795 -4.813619950987973e-16 -90.00000250447816 -2.457400037419861 21.224300581626874 1.4759399533379924 0.8744899835302128 27.023001413373468 14.891299664319567 -12.467527636391441 -22.820070120815508 -1.9814310480315291 -2.110499852116791 12.325100262950103 -4.242960043075642 6.635190257416649 -1.0069500298992387 -5.437410291635954 57.546870927350334 -24.984664644271977 -30.118046994251387 10.874700201187787 42.60429874047877 -1.8734299624411719 -64.97181247972028 -12.424549524812782 -47.86727709977 4.117920196827042 29.661599112397774 -35.785000307097604 0.9395550592548418 -23.00000120921574 -8.898159568601988 -0.5399379798337324 26.122099461848787 -15.96250042996747 4.4491147890204905 -4.498167926979052 -0.14132427120995364 
